<?xml version="1.0" standalone="yes"?>
<svg xmlns="http://www.w3.org/2000/svg" width="512" height="512">
<path style="fill:#ffffff; stroke:none;" d="M0 0L0 234L1 234C1.01832 206.34 10.4316 176.983 21.6944 152C57.6619 72.216 143.751 1.06015 235 1L213 0L166 0L0 0z"/>
<path style="fill:#8de3ea; stroke:none;" d="M8 324L9 324L24.0255 268L44 214L45 214C40.5657 232.625 47.3937 249.972 54 267L55 267L63.1698 176L74 105L75 105C75 123.806 82.9849 137.239 90 154L92 154C95.8594 144.606 100.787 135.498 106.344 127C110.108 121.245 114.132 115.874 119.004 111.004C137.453 92.5605 155.971 100.186 170.575 119C191.542 146.011 206.322 184.813 214 218C225.842 209.921 226.319 181.493 224 169L225 169L245 227L246 227L280 116L281 116C280.947 135.331 283.981 149.903 291 168L292 168C299.194 114.577 324.252 63.2487 350 17C313.284 5.03287 276.924 -2.57605 238 0.0895081C134.023 7.20999 42.0189 79.2668 11.0255 179C1.48662 209.695 -2.88683 243.881 0.169753 276C1.71704 292.259 5.9205 307.897 8 324z"/>
<path style="fill:#ffffff; stroke:none;" d="M277 0L277 1C293.467 1.01086 310.202 5.03314 326 9.42438C332.099 11.1196 342.841 17.3133 349 16.071C356.72 14.5138 362.949 3.98761 371 1L342 0L277 0z"/>
<path style="fill:#f4a923; stroke:none;" d="M404 344C411.202 340.156 416.275 331.754 422.001 326C434.596 313.344 447.507 301.123 461 289.424C467.544 283.75 480.038 275.854 483.396 267.715C485.502 262.609 482.464 254.233 481.586 249C479.005 233.606 476.091 218.226 472.65 203C460.915 151.061 449.198 95.9086 425.247 48C416.987 31.4784 405.89 7.58569 387 1.10803C368.248 -5.32214 354.686 10.1549 345.343 24C324.259 55.2465 312.336 93.0305 302.14 129C299.027 139.984 289.065 160.994 293.356 172C298.95 186.351 309.276 199.438 317.975 212C337.499 240.192 359.628 266.442 378.667 295C388.504 309.756 399.858 326.52 404 344z"/>
<path style="fill:#ffffff; stroke:none;" d="M385 0L385 1C397.859 4.78384 407.638 18.0678 414.388 29C428.95 52.5848 435.638 80.8054 459 98C462.714 88.0817 461.898 77.2161 460 67L461 67C471.369 93.7337 479.111 121.062 488.698 148C498.774 176.31 510.997 204.282 511 235L512 235L512 0L385 0z"/>
<path style="fill:#bed27c; stroke:none;" d="M349 18L350 19L349 18M348 19L349 20L348 19M346 22L347 23L346 22M344 25L345 26L344 25M342 28L343 29L342 28M340 31L341 32L340 31M339 33L340 34L339 33M338 35L339 36L338 35M336 38L337 39L336 38M335 40L336 41L335 40M334 42L335 43L334 42M333 44L334 45L333 44M332 46L333 47L332 46M331 48L332 49L331 48M330 50L331 51L330 50M329 52L330 53L329 52M328 54L329 55L328 54M326 59L327 60L326 59M325 61L326 62L325 61M324 63L325 64L324 63M323 66L324 67L323 66z"/>
<path style="fill:#9db751; stroke:none;" d="M460 67C461.575 79.4663 461.409 90.6697 458.475 103C456.923 109.523 451.655 116.115 452.508 123C453.831 133.689 458.508 144.538 461.127 155C470.109 190.884 482.406 229.886 484 267C505.511 256.969 503.276 238.705 501.166 219C497.133 181.327 488.636 143.907 476.667 108C472.604 95.812 469.048 76.3256 460 67z"/>
<path style="fill:#bed27c; stroke:none;" d="M322 68L323 69L322 68M321 71L322 72L321 71M320 73L321 74L320 73z"/>
<path style="fill:#8de3ea; stroke:none;" d="M436 74L452 119C464.306 100.469 452.302 85.4832 436 74z"/>
<path style="fill:#bed27c; stroke:none;" d="M436 75L437 76L436 75M319 76L320 77L319 76M437 78L438 79L437 78M317 81L318 82L317 81M438 81L439 82L438 81M439 83L440 84L439 83M316 84L317 85L316 84M440 86L441 87L440 86M315 87L316 88L315 87M314 89L315 90L314 89M441 89L442 90L441 89M313 92L314 93L313 92M442 92L443 93L442 92M443 94L444 95L443 94M312 95L313 96L312 95M444 97L445 98L444 97M311 98L312 99L311 98M138.667 99.3333L139.333 99.6667L138.667 99.3333z"/>
<path style="fill:#f4a923; stroke:none;" d="M167 443L187.015 423L224 389L248 370C240.574 306.585 223.948 241.866 202.053 182C192.67 156.345 181.226 123.925 159 106.519C138.228 90.2506 119.358 107.32 107.344 125C86.5008 155.673 74.8863 193.624 64.8596 229C61.7429 239.996 53.9923 256.566 55.365 268C56.0442 273.658 60.733 280.173 63.6042 285C70.7773 297.059 78.7203 308.769 87.1265 320C106.163 345.434 125.971 370.389 143.344 397C152.493 411.015 163.077 426.483 167 443z"/>
<path style="fill:#bed27c; stroke:none;" d="M142 99L142 100L145 100L142 99M134 100L135 101L134 100M148 100L149 101L148 100M445 100L446 101L445 100M131 101L132 102L131 101M150 101L151 102L150 101M310 101L311 102L310 101M129 102L130 103L129 102M127 103L128 104L127 103M154 103L155 104L154 103M446 103L447 104L446 103M458 103L459 104L458 103M156 104L157 105L156 104M309 104L310 105L309 104z"/>
<path style="fill:#9db751; stroke:none;" d="M74 105C68.3185 148.995 54.6208 196.301 61 241L62 241L80.4252 182L90.3966 156L81.8619 137L74 105z"/>
<path style="fill:#bed27c; stroke:none;" d="M124 105L125 106L124 105M157 105L158 106L157 105M123 106L124 107L123 106M457 106L458 107L457 106M308 107L309 108L308 107M447 107L448 108L447 107M73 108L74 109L73 108M161 108L162 109L161 108M162 109L163 110L162 109M163 110L164 111L163 110M307 110L308 111L307 110M448 110L449 111L448 110M164 111L165 112L164 111M455 111L456 112L455 111M165 112L166 113L165 112M72 113L73 114L72 113M166 113L167 114L166 113M449 113L450 114L449 113M281.333 114.667L281.667 115.333L281.333 114.667M306 114L307 115L306 114M114 115L115 116L114 115M75 116L76 117L75 116M113 116L114 117L113 116z"/>
<path style="fill:#9db751; stroke:none;" d="M280 116C269.262 153.562 251.083 188.642 246 228L245 228C243.252 207.977 231.382 187.864 225 169L224 169C225.97 179.613 225.165 190.692 221.975 201C220.009 207.352 214.781 215.258 215.608 222C216.998 233.335 221.853 244.904 224.627 256C233.428 291.208 245.437 329.603 247 366C263.778 358.896 283.197 332.427 284 314L285 314C286.879 357.754 293.293 399.142 285.386 443C282.759 457.571 279.099 472.24 273.6 486C270.116 494.719 264.579 503.048 262 512C299.025 512 340.806 502.787 373 484C361.008 473.543 347.83 466.033 337.899 453C305.447 410.41 305.587 352.536 313.424 302C315.969 285.594 319.211 269.133 323.13 253C324.904 245.695 329.623 235.516 328.631 228C327.696 220.918 319.215 212.721 315.141 207C306.12 194.331 297.887 180.934 290.97 167C285.459 155.9 282.09 144.239 280.425 132C279.723 126.836 281.844 120.725 280 116z"/>
<path style="fill:#bed27c; stroke:none;" d="M450 116L451 117L450 116M453 116L454 117L453 116M169 117L170 118L169 117M305 117L306 118L305 117M170 118L171 119L170 118M279 118L280 119L279 118M111 119L112 120L111 119M451 119L452 120L451 119M110 120L111 121L110 120M278 120L279 121L278 120M304 120L305 121L304 120M76 121L77 122L76 121M172 121L173 122L172 121M280 121L280 125L281 125L280 121M173 122L174 123L173 122M70 123L71 124L70 123M108 123L109 124L108 123M303.333 123.667L303.667 124.333L303.333 123.667M175 125L176 126L175 125M276 125L277 126L276 125M106 126L107 127L106 126M275 127L276 128L275 127M302 127L303 128L302 127M78 128L79 129L78 128M177 128L178 129L177 128M280 128L280 133L281 133L280 128M69 129L70 130L69 129M104 129L105 130L104 129M178 130L179 131L178 130M274 130L275 131L274 130M301.333 130.667L301.667 131.333L301.333 130.667M79 131L80 132L79 131M180 133L181 134L180 133M101 134L102 135L101 134M300 134L301 135L300 134M68 135L69 136L68 135M181 135L182 136L181 135M272 135L273 136L272 135M81 136L82 137L81 136M100 136L101 137L100 136M182 137L183 138L182 137M99 138L100 139L99 138M271 138L272 139L271 138M299 138L300 139L299 138M183 139L184 140L183 139M281 139L282 140L281 139M98 140L99 141L98 140M270 140L271 141L270 140M67 141L68 142L67 141M184 141L185 142L184 141M298 141L299 142L298 141M185 143L186 144L185 143M269 143L270 144L269 143M282.333 143.667L282.667 144.333L282.333 143.667M95 145L96 146L95 145M186 145L187 146L186 145M297 145L298 146L297 145M86 146L87 147L86 146M268 146L269 147L268 146M187 147L188 148L187 147M283 147L284 148L283 147z"/>
<path style="fill:#8de3ea; stroke:none;" d="M488 147C492.586 181.057 503 213.174 503 248C513.797 241.657 511.449 230.551 510 220C506.795 196.667 501.345 166.862 488 147z"/>
<path style="fill:#bed27c; stroke:none;" d="M66 148L67 149L66 148M296.333 148.667L296.667 149.333L296.333 148.667M188 149L189 150L188 149M267 149L268 150L267 149M93 150L94 151L93 150M488 150L489 151L488 150M189 151L190 152L189 151M284 151L285 152L284 151M92 152L93 153L92 152M295.333 152.667L295.667 153.333L295.333 152.667M190 153L191 154L190 153M91 154L92 155L91 154M285 154L286 155L285 154M489 154L490 155L489 154M65 155L66 156L65 155M191 155L192 156L191 155M286 156L287 157L286 156M294.333 156.667L294.667 157.333L294.333 156.667M264 157L265 158L264 157M490 158L491 159L490 158M193 160L194 161L193 160M263 160L264 161L263 160M293.333 160.667L293.667 161.333L293.333 160.667M288 161L289 162L288 161M194 162L195 163L194 162M262 163L263 164L262 163M64 164L65 165L64 164M292.333 164.667L292.667 165.333L292.333 164.667M195 165L196 166L195 165M261 166L262 167L261 166M290 166L291 167L290 166M196 167L197 168L196 167M291 168L292 169L291 168M197 169L198 170L197 169M260 170L261 171L260 170M224 171L225 172L224 171M198 172L199 173L198 172M63 173L64 174L63 173M259 173L260 174L259 173M199 174L200 175L199 174M258 176L259 177L258 176M200 177L201 178L200 177M228 178L229 179L228 178M201 180L202 181L201 180M257 180L258 181L257 180M202 183L203 184L202 183M230 183L231 184L230 183M256 183L257 184L256 183M62 184L63 185L62 184M203 185L204 186L203 185M255 186L256 187L255 186M496 186L497 187L496 186M204 188L205 189L204 188M224 189L225 190L224 189M254 190L255 191L254 190M205 191L206 192L205 191M233 191L234 192L233 191M497 192L498 193L497 192M253 194L254 195L253 194M223 195L224 196L223 195M207 197L208 198L207 197M61.3333 198.667L61.6667 199.333L61.3333 198.667M252 198L253 199L252 198M498 198L499 199L498 198M222 199L223 200L222 199M208 200L209 201L208 200M251 202L252 203L251 202M209 203L210 204L209 203M499 204L500 205L499 204M238 205L239 206L238 205M210 206L211 207L210 206M250 206L251 207L250 206M239 208L240 209L239 208M211 209L212 210L211 209M249 210L250 211L249 210M212 212L213 213L212 212M500 212L501 213L500 212M217 213L218 214L217 213M248.333 213.667L248.667 214.333L248.333 213.667M44 214L43 216L45 216L44 214M213 215L214 216L213 215z"/>
<path style="fill:#9db751; stroke:none;" d="M43 216C33.2006 241.403 23.9734 266.694 16.8488 293C14.2139 302.729 9.24607 314.849 9.75386 325C10.9033 347.977 28.3804 374.972 40.0031 394C47.9714 407.045 59.5151 426.278 73 434C73.4874 410.386 78.6007 385.965 83.8812 363C86.2806 352.565 92.515 338.666 91.7654 328C91.296 321.32 83.6167 314.372 80 309C70.5871 295.018 61.3608 281.114 53.8086 266C48.2744 254.924 45.0826 243.21 43.4252 231C42.7613 226.109 44.755 220.496 43 216z"/>
<path style="fill:#bed27c; stroke:none;" d="M214.667 218.333L215.333 218.667L214.667 218.333M247.333 218.667L247.667 219.333L247.333 218.667M43 221L43 232L44 232L43 221M501 221L502 222L501 221M40 222L41 223L40 222M246 224L247 225L246 224M39 225L40 226L39 225M38 227L39 228L38 227M245 227L246 228L245 227M329 228C325.639 248.165 319.986 269.058 315 289C305.633 326.47 306.803 374.213 316 411C321.24 431.96 333.583 450.583 350 467C354.475 471.475 372.56 482.76 372 485L387 477L387 476C376.81 476.646 375.663 468.489 373.654 460C369.809 443.744 369.198 427.41 372.261 411C375.072 395.941 381.097 381.063 389.062 368C393.126 361.334 402.406 352.546 403.936 345C405.69 336.347 395.197 321.276 391.138 314C378.971 292.191 363.732 271.678 348.424 252C342.317 244.15 336.923 234.077 329 228M60 229L60 236L61 236L60 229M37 230L38 231L37 230M502 233L503 234L502 233M35 235L36 236L35 235M44 238L45 239L44 238M60 238L60 242L61 242L60 238M511 239C496.369 255.899 480.448 270.788 464 285.914C454.46 294.688 443.723 302.554 435.896 313.001C421.815 331.796 414.68 355.775 413.09 379C412.004 394.845 415.091 412.1 422.862 426C424.897 429.639 429.061 438.793 434.015 438.793C437.788 438.793 441.614 433.43 443.985 431C452.92 421.845 460.462 411.393 467.859 401C492.26 366.716 504.802 326.19 510.425 285C512.134 272.483 515.977 250.86 511 239M33 240L34 241L33 240M32 243L33 244L32 243M45 243L46 244L45 243M60.3333 244.667L60.6667 245.333L60.3333 244.667M31 245L32 246L31 245M46 247L47 248L46 247M30 248L31 249L30 248M59 248L60 249L59 248M47 250L48 251L47 250M29 251L30 252L29 251M58 252L59 253L58 252M48 253L49 254L48 253M28 254L29 255L28 254M57 256L58 257L57 256M27 257L28 258L27 257M50 258L51 259L50 258M26 260L27 261L26 260M51 260L52 261L51 260M56 260L57 261L56 260M25 263L26 264L25 263M52 263L53 264L52 263M55 264L56 265L55 264M53 265L54 266L53 265M24 266L25 267L24 266M54 267L55 268L54 267M23 269L24 270L23 269M22 273L23 274L22 273M21 276L22 277L21 276z"/>
<path style="fill:#ffffff; stroke:none;" d="M511 277C510.939 369.888 437.283 457.923 355 492.424C331.239 502.388 304.008 510.983 278 511L278 512L512 512L512 346L512 299L511 277M0 278L0 512L234 512L234 511C146.748 510.942 59.5114 442.666 24.3086 366C15.5907 347.014 9.08159 327.414 4.66204 307C2.70753 297.972 3.50558 286.351 0 278z"/>
<path style="fill:#bed27c; stroke:none;" d="M20 279L21 280L20 279M19.3333 282.667L19.6667 283.333L19.3333 282.667z"/>
<path style="fill:#8de3ea; stroke:none;" d="M510 284L510 287L511 287L510 284z"/>
<path style="fill:#bed27c; stroke:none;" d="M18 286L19 287L18 286M17 290L18 291L17 290M16 294L17 295L16 294z"/>
<path style="fill:#8de3ea; stroke:none;" d="M509 294L510 295L509 294z"/>
<path style="fill:#bed27c; stroke:none;" d="M15 297L16 298L15 297z"/>
<path style="fill:#8de3ea; stroke:none;" d="M508 298L508 301L509 301L508 298z"/>
<path style="fill:#bed27c; stroke:none;" d="M14 301L15 302L14 301M13 305L14 306L13 305z"/>
<path style="fill:#9db751; stroke:none;" d="M440 307L441 308L440 307M439 308L440 309L439 308z"/>
<path style="fill:#bed27c; stroke:none;" d="M12.3333 309.667L12.6667 310.333L12.3333 309.667z"/>
<path style="fill:#9db751; stroke:none;" d="M438 309L439 310L438 309M437 310L438 311L437 310z"/>
<path style="fill:#8de3ea; stroke:none;" d="M506 310L507 311L506 310z"/>
<path style="fill:#9db751; stroke:none;" d="M436 311C410.463 336.537 384.37 364.135 374.64 400C369.411 419.277 369.012 438.455 373.004 458C374.019 462.969 375.276 474.632 381.109 475.927C388.098 477.478 393.661 472.782 399 468.999C411.349 460.251 422.604 450.956 434 441L434 440C409.081 413.945 409.225 375.219 420.692 343C423.292 335.695 426.635 328.66 430.604 322C432.608 318.637 436.204 314.963 436 311z"/>
<path style="fill:#bed27c; stroke:none;" d="M11 314L12 315L11 314M284 314C282.682 330.121 270.884 342.473 260.715 354C256.509 358.766 248.299 363.315 248 370C237.883 372.64 229.546 383.081 222 389.925C198.928 410.852 182.332 433.253 177.87 465C176.668 473.548 172.412 491.824 178.028 499.437C180.923 503.362 190.531 504.243 195 505.21C210.791 508.625 226.763 511.994 243 512C247.816 512.002 258.327 513.981 262.034 510.397C275.508 497.367 280.62 467.616 284.199 450C288.343 429.605 290 408.767 290 388C290 372.529 289.217 357.393 288.089 342C287.456 333.368 287.781 321.868 284 314z"/>
<path style="fill:#8de3ea; stroke:none;" d="M505 314L506 315L505 314z"/>
<path style="fill:#bed27c; stroke:none;" d="M10 318L11 319L10 318z"/>
<path style="fill:#8de3ea; stroke:none;" d="M504.333 318.667L504.667 319.333L504.333 318.667z"/>
<path style="fill:#bed27c; stroke:none;" d="M9 323L10 324L9 323z"/>
<path style="fill:#8de3ea; stroke:none;" d="M503 323L504 324L503 323z"/>
<path style="fill:#bed27c; stroke:none;" d="M9.33333 325.667L9.66667 326.333L9.33333 325.667z"/>
<path style="fill:#8de3ea; stroke:none;" d="M502 326L503 327L502 326z"/>
<path style="fill:#bed27c; stroke:none;" d="M92 327C88.4329 353.49 79.5344 379.379 75.7292 406C74.6462 413.576 70.5722 427.794 73.3133 435C75.988 442.031 85.376 448.002 91 452.614C107.133 465.845 124.588 478.918 144 487C144.39 475.983 153.643 464.76 159.659 456C162.169 452.345 167.121 447.665 167.179 443C167.303 433.04 157.635 419.37 152.85 411C141.221 390.663 126.931 371.532 112.651 353C106.044 344.425 100.175 334.144 92 327M10 329L11 330L10 329z"/>
<path style="fill:#8de3ea; stroke:none;" d="M501 329L502 330L501 329z"/>
<path style="fill:#bed27c; stroke:none;" d="M11.3333 332.667L11.6667 333.333L11.3333 332.667z"/>
<path style="fill:#8de3ea; stroke:none;" d="M500.333 332.667L500.667 333.333L500.333 332.667z"/>
<path style="fill:#bed27c; stroke:none;" d="M12.3333 335.667L12.6667 336.333L12.3333 335.667z"/>
<path style="fill:#8de3ea; stroke:none;" d="M499.333 335.667L499.667 336.333L499.333 335.667z"/>
<path style="fill:#bed27c; stroke:none;" d="M13.3333 338.667L13.6667 339.333L13.3333 338.667M14.3333 341.667L14.6667 342.333L14.3333 341.667M15 344L16 345L15 344z"/>
<path style="fill:#8de3ea; stroke:none;" d="M496 344L497 345L496 344z"/>
<path style="fill:#bed27c; stroke:none;" d="M16.3333 346.667L16.6667 347.333L16.3333 346.667z"/>
<path style="fill:#8de3ea; stroke:none;" d="M495 347L496 348L495 347z"/>
<path style="fill:#bed27c; stroke:none;" d="M17.3333 349.667L17.6667 350.333L17.3333 349.667z"/>
<path style="fill:#8de3ea; stroke:none;" d="M494.333 349.667L494.667 350.333L494.333 349.667z"/>
<path style="fill:#bed27c; stroke:none;" d="M18 352L19 353L18 352M19.3333 354.667L19.6667 355.333L19.3333 354.667M20 357L21 358L20 357z"/>
<path style="fill:#8de3ea; stroke:none;" d="M491 357L492 358L491 357z"/>
<path style="fill:#bed27c; stroke:none;" d="M21 359L22 360L21 359z"/>
<path style="fill:#8de3ea; stroke:none;" d="M490 359L491 360L490 359z"/>
<path style="fill:#bed27c; stroke:none;" d="M22 361L23 362L22 361M23 363L24 364L23 363z"/>
<path style="fill:#8de3ea; stroke:none;" d="M23 364L24 365L23 364z"/>
<path style="fill:#bed27c; stroke:none;" d="M24.3333 365.667L24.6667 366.333L24.3333 365.667z"/>
<path style="fill:#f4a923; stroke:none;" d="M487 366L488 367L487 366z"/>
<path style="fill:#bed27c; stroke:none;" d="M25.3333 367.667L25.6667 368.333L25.3333 367.667M26 370L27 371L26 370M27 372L28 373L27 372z"/>
<path style="fill:#f4a923; stroke:none;" d="M484 372L485 373L484 372z"/>
<path style="fill:#bed27c; stroke:none;" d="M28.3333 373.667L28.6667 374.333L28.3333 373.667z"/>
<path style="fill:#f4a923; stroke:none;" d="M483 374L484 375L483 374z"/>
<path style="fill:#bed27c; stroke:none;" d="M29 375L30 376L29 375z"/>
<path style="fill:#8de3ea; stroke:none;" d="M29 376L30 377L29 376z"/>
<path style="fill:#bed27c; stroke:none;" d="M30 377L31 378L30 377M31 379L32 380L31 379M32 381L33 382L32 381M33 383L34 384L33 383M35 386L36 387L35 386M36 388L37 389L36 388M37 389L38 390L37 389M38 391L39 392L38 391M39 393L40 394L39 393M40 394L41 395L40 394M41 396L42 397L41 396M43 399L44 400L43 399M44 400L45 401L44 400M45 402L46 403L45 402z"/>
<path style="fill:#f4a923; stroke:none;" d="M466 402L467 403L466 402z"/>
<path style="fill:#bed27c; stroke:none;" d="M46 403L47 404L46 403M47 405L48 406L47 405M48 406L49 407L48 406M49 407L50 408L49 407z"/>
<path style="fill:#9db751; stroke:none;" d="M202 408L203 409L202 408z"/>
<path style="fill:#bed27c; stroke:none;" d="M50 409L51 410L50 409z"/>
<path style="fill:#9db751; stroke:none;" d="M201 409L202 410L201 409z"/>
<path style="fill:#bed27c; stroke:none;" d="M51 410L52 411L51 410z"/>
<path style="fill:#9db751; stroke:none;" d="M200 410L201 411L200 410M199 411L200 412L199 411M198 412L199 413L198 412z"/>
<path style="fill:#bed27c; stroke:none;" d="M53 413L54 414L53 413z"/>
<path style="fill:#9db751; stroke:none;" d="M197 413C175.599 429.306 150.235 459.547 143 486L177 500C176.987 480.429 176.793 462.934 183.344 444C186.153 435.883 198.137 420.839 197 413z"/>
<path style="fill:#f4a923; stroke:none;" d="M458 413L459 414L458 413z"/>
<path style="fill:#bed27c; stroke:none;" d="M54 414L55 415L54 414M55 415L56 416L55 415M56 416L57 417L56 416M57 418L58 419L57 418z"/>
<path style="fill:#f4a923; stroke:none;" d="M454 418L455 419L454 418z"/>
<path style="fill:#bed27c; stroke:none;" d="M58 419L59 420L58 419M59 420L60 421L59 420M60 421L61 422L60 421M62 424L63 425L62 424z"/>
<path style="fill:#8de3ea; stroke:none;" d="M449 424L450 425L449 424z"/>
<path style="fill:#bed27c; stroke:none;" d="M63 425L64 426L63 425M64 426L65 427L64 426M65 427L66 428L65 427M66 428L67 429L66 428M67 429L68 430L67 429M68 430L69 431L68 430M69 431L70 432L69 431M70 432L71 433L70 432M429 444L430 445L429 444M428 445L429 446L428 445M427 446L428 447L427 446M426 447L427 448L426 447M425 448L426 449L425 448z"/>
<path style="fill:#8de3ea; stroke:none;" d="M87 449L88 450L87 449z"/>
<path style="fill:#f4a923; stroke:none;" d="M92 453L93 454L92 453M93 454L94 455L93 454z"/>
<path style="fill:#bed27c; stroke:none;" d="M415 456L416 457L415 456M414 457L415 458L414 457M406 463L407 464L406 463M403 465L404 466L403 465M402 466L403 467L402 466M399 468L400 469L399 468M396 470L397 471L396 470M370 485L371 486L370 485M368 486L369 487L368 486M145.667 487.333L146.333 487.667L145.667 487.333M366 487L367 488L366 487M147.667 488.333L148.333 488.667L147.667 488.333M364 488L365 489L364 488M150 489L151 490L150 489M361.667 489.333L362.333 489.667L361.667 489.333M152 490L153 491L152 490M359 490L360 491L359 490M154 491L155 492L154 491M357 491L358 492L357 491M156.667 492.333L157.333 492.667L156.667 492.333M354 492L355 493L354 492M159 493L160 494L159 493M352 493L353 494L352 493M161.667 494.333L162.333 494.667L161.667 494.333M350 494L351 495L350 494M164 495L165 496L164 495M347 495L348 496L347 495M166.667 496.333L167.333 496.667L166.667 496.333M344 496L345 497L344 496M169 497L170 498L169 497M342 497L343 498L342 497M172 498L173 499L172 498M339 498L340 499L339 498M175 499L176 500L175 499M336 499L337 500L336 499M333 500L334 501L333 500z"/>
<path style="fill:#f4a923; stroke:none;" d="M181 501L182 502L181 501z"/>
<path style="fill:#bed27c; stroke:none;" d="M329.667 501.333L330.333 501.667L329.667 501.333M326 502L327 503L326 502M322.667 503.333L323.333 503.667L322.667 503.333M318.667 504.333L319.333 504.667L318.667 504.333z"/>
<path style="fill:#f4a923; stroke:none;" d="M196 505L197 506L196 505z"/>
<path style="fill:#bed27c; stroke:none;" d="M314.667 505.333L315.333 505.667L314.667 505.333M310 506L311 507L310 506M305 507L306 508L305 507M300.667 508.333L301.333 508.667L300.667 508.333M293.667 509.333L294.333 509.667L293.667 509.333M285 510L285 511L288 511L285 510M275 511L275 512L278 512L275 511z"/>
</svg>
