<?xml version="1.0" standalone="yes"?>
<svg xmlns="http://www.w3.org/2000/svg" width="512" height="512">
<path style="fill:#ffffff; stroke:none;" d="M0 0L0 512L93 512L93 511C78.903 503.667 82 487.426 82 474L82 416C82 397.914 82.0093 380.184 95.0934 366.001C111.429 348.293 135.025 349.241 154.91 338.442C167.098 331.823 170.724 307.886 188 310.34C191.539 310.843 194.803 312.499 198 314C198 303.594 200.999 287.772 197.397 278C194.669 270.603 185.542 264.616 181.029 258C171.677 244.293 167.064 229.317 165 213C142.666 221.14 136.384 195.07 140.533 178C141.918 172.301 147.424 168.946 147.941 163C148.798 153.15 148 142.889 148 133L128 133L115 133C111.209 133 91.8422 132.947 100.323 124.498C110.012 114.844 131.531 109.927 144 104.306C147.98 102.511 154.368 101.034 156.436 96.787C159.255 90.9965 159.192 82.3321 160.247 76L167.753 31C169.878 18.2477 173.086 5.44315 187 1L169 0L131 0L0 0z"/>
<path style="fill:#facc68; stroke:none;" d="M162 66L347 66C345.937 52.9909 341.037 39.6542 337.873 27C335.899 19.1039 334.296 11.2646 327.826 5.68054C318.392 -2.46222 304.56 0 293 0L213 0C201.625 0 187.307 -2.67139 178.04 5.32947C164.64 16.8981 163.329 49.1793 162 66z"/>
<path style="fill:#ffffff; stroke:none;" d="M318 0L318 1C331.857 5.10651 335.249 17.503 338.373 30L349.627 75C351.309 81.7312 352.024 90.7213 355.43 96.787C357.793 100.997 363.879 102.448 368 104.306C380.469 109.927 401.988 114.844 411.677 124.498C420.158 132.947 400.791 133 397 133L384 133L364 133C364 142.889 363.202 153.15 364.059 163C364.576 168.946 370.082 172.301 371.467 178C375.616 195.07 369.334 221.14 347 213C344.936 229.317 340.323 244.293 330.971 258C326.458 264.616 317.331 270.603 314.603 278C311.001 287.772 314 303.594 314 314C317.197 312.499 320.461 310.843 324 310.34C341.276 307.886 344.902 331.823 357.09 338.442C376.975 349.241 400.571 348.293 416.907 366.001C429.991 380.184 430 397.914 430 416L430 474C430 487.426 433.097 503.667 419 511L419 512L512 512L512 0L318 0z"/>
<path style="fill:#936855; stroke:none;" d="M157 99L355 99L347 66L211 66L176 66C172.509 66 165.638 64.7025 162.742 67.0278C157.551 71.1951 157.133 92.5503 157 99z"/>
<path style="fill:#f3975f; stroke:none;" d="M347 66L347 69L348 69L347 66M348 70L348 73L349 73L348 70M349 74L349 77L350 77L349 74M350 78L350 81L351 81L350 78M351 82L352 83L351 82M158 86L159 87L158 86M352 86L353 87L352 86M353 90L354 91L353 90M157 92L158 93L157 92M354 94L355 95L354 94M156 98C148.306 105.77 133.083 109.863 123 114C135.17 119.107 156.747 115 170 115L279 115C290.304 115 305.049 117.533 315.981 114.682C320.945 113.388 323.142 107.344 320.254 103.109C314.322 94.4097 287.512 99 278 99L198 99C184.576 99 169.087 101.116 156 98M355 98L356 99L355 98z"/>
<path style="fill:#facc68; stroke:none;" d="M154.667 99.3333L155.333 99.6667L154.667 99.3333M316 99C334.151 119.334 293.021 115 282 115L145 115C131.279 115 120.706 114.237 108 119.86C104.287 121.504 97.3772 123.576 98.3765 128.896C99.5692 135.245 112.428 133 117 133C136.705 133 156.31 131.532 176 132.015C233.305 133.419 290.71 132 348 132C363.343 132 378.616 133 394 133C398.841 133 407.485 134.629 411.682 131.821C421.834 125.029 394.865 115.848 391 114.14C380.263 109.392 368.48 101.868 357 99.3904C344.374 96.665 328.917 99 316 99M152.667 100.333L153.333 100.667L152.667 100.333M150.667 101.333L151.333 101.667L150.667 101.333M148.667 102.333L149.333 102.667L148.667 102.333M145.667 103.333L146.333 103.667L145.667 103.333M143.667 104.333L144.333 104.667L143.667 104.333M141.667 105.333L142.333 105.667L141.667 105.333M139.667 106.333L140.333 106.667L139.667 106.333M136.667 107.333L137.333 107.667L136.667 107.333M134.667 108.333L135.333 108.667L134.667 108.333M132.667 109.333L133.333 109.667L132.667 109.333M130.667 110.333L131.333 110.667L130.667 110.333M127.667 111.333L128.333 111.667L127.667 111.333M125.667 112.333L126.333 112.667L125.667 112.333M123.667 113.333L124.333 113.667L123.667 113.333z"/>
<path style="fill:#f3975f; stroke:none;" d="M148 132L148 133L181 133C181 140.99 182.902 151.322 177.606 157.985C168.759 169.114 154.055 160.258 145.301 170.329C131.816 185.843 141.834 220.808 166 212C166.342 228.56 172.775 245.523 182.208 259C186.08 264.531 196.047 271.299 197.821 277.464C200.619 287.187 192.508 307.746 200.318 315.211C210.791 325.222 229.254 331.838 242 338.769C246.243 341.077 251.889 345.822 257 345.15C267.381 343.783 279.844 333.21 289 328.231C295.512 324.69 309.069 320.109 312.972 313.671C317.744 305.801 314 286.164 314 277C300.112 282.871 288.235 295.206 272 295.41C262.562 295.529 251.962 289.816 244 285.279C213.057 267.649 198 235.576 198 201L198 166C198 160.909 197.221 155.165 201.228 151.279C208.256 144.463 226.886 148 236 148L330 148L330 152L331 152L331 133L364 133L345 132L301 133L148 132z"/>
<path style="fill:#936855; stroke:none;" d="M148 133L148 167C155.461 165.295 165.198 166.69 171.999 163.427C183.688 157.821 181 143.65 181 133L148 133M331 133C331 143.65 328.312 157.821 340.001 163.427C346.802 166.69 356.539 165.295 364 167L364 133L331 133z"/>
<path style="fill:#facc68; stroke:none;" d="M347 213C370.096 224.115 377.998 189.75 370.427 174.001C364.43 161.523 349.801 168.238 340.001 163.312C333.906 160.249 330.971 154.476 330 148L238 148C228.614 148 210.126 144.486 202.109 149.858C197.062 153.24 198 159.719 198 165L198 205C198 238.381 214.543 269.241 244 285.846C251.982 290.346 262.592 295.722 272 295.656C285.743 295.559 300.156 286.426 311 278.958C319.295 273.246 326.056 266.418 331.644 258C340.613 244.488 345.726 229.142 347 213z"/>
<path style="fill:#f3975f; stroke:none;" d="M331 154L332 155L331 154M332 156L333 157L332 156M333 158L334 159L333 158M334 159L335 160L334 159M335 160L336 161L335 160M336 161L337 162L336 161M339 163L340 164L339 163M342 164L343 165L342 164M212 165L213 166L212 165z"/>
<path style="fill:#936855; stroke:none;" d="M213.015 165.667C202.253 167.884 203.868 191.294 215.985 189.512C227.146 187.87 225.414 163.112 213.015 165.667z"/>
<path style="fill:#f3975f; stroke:none;" d="M216.667 165.333L217.333 165.667L216.667 165.333M294.667 165.333L295.333 165.667L294.667 165.333z"/>
<path style="fill:#936855; stroke:none;" d="M296.004 165.667C285.017 167.894 286.508 192.339 298.985 189.384C309.643 186.86 308.098 163.215 296.004 165.667z"/>
<path style="fill:#f3975f; stroke:none;" d="M299 165L300 166L299 165M356 165L356 166L359 166L356 165M361 166L362 167L361 166z"/>
<path style="fill:#facc68; stroke:none;" d="M147 167L146 169L148 169L147 167z"/>
<path style="fill:#f3975f; stroke:none;" d="M220 167L221 168L220 167M291 167L292 168L291 167M363 167L364 168L363 167M221 168L222 169L221 168M290 168L291 169L290 168z"/>
<path style="fill:#facc68; stroke:none;" d="M145 169L146 170L145 169z"/>
<path style="fill:#f3975f; stroke:none;" d="M207 169L208 170L207 169M304 169L305 170L304 169z"/>
<path style="fill:#facc68; stroke:none;" d="M144 170L145 171L144 170z"/>
<path style="fill:#f3975f; stroke:none;" d="M222 170L223 171L222 170M289 170L290 171L289 170z"/>
<path style="fill:#facc68; stroke:none;" d="M143 171L141 177L142 177L143 171z"/>
<path style="fill:#f3975f; stroke:none;" d="M206 172L207 173L206 172M305 172L306 173L305 172z"/>
<path style="fill:#facc68; stroke:none;" d="M140 177L140 201L141 201L140 177z"/>
<path style="fill:#f3975f; stroke:none;" d="M206.333 182.667L206.667 183.333L206.333 182.667M305.333 182.667L305.667 183.333L305.333 182.667M222 184L223 185L222 184M289 184L290 185L289 184M207 185L208 186L207 185M304 185L305 186L304 185M221 186L222 187L221 186M290 186L291 187L290 186M219 188L220 189L219 188M292 188L293 189L292 188M211.667 189.333L212.333 189.667L211.667 189.333M217 189L218 190L217 189M294 189L295 190L294 189M299.667 189.333L300.333 189.667L299.667 189.333z"/>
<path style="fill:#facc68; stroke:none;" d="M141 202L143 208L144 208L141 202M144 208L148 212L144 208M148 212L148 213L152 214L152 213L148 212M164 212L165 217L166 217L164 212M162.667 213.333L163.333 213.667L162.667 213.333M152 214L152 215L162 215L152 214M166 218L166 224L167 224L166 218z"/>
<path style="fill:#ffffff; stroke:none;" d="M225.043 223.653C212.096 227.961 224.313 242.312 230.039 246.985C241.46 256.303 257.28 258.205 271 253.3C278.497 250.62 302.903 232.837 288.786 224.457C284.236 221.756 277.075 223 272 223C258.184 223 238.156 219.29 225.043 223.653z"/>
<path style="fill:#facc68; stroke:none;" d="M167 224L167 229L168 229L167 224M168 229L168 232L169 232L168 229M169 232L169 235L170 235L169 232M170 235L171 241L172 241L170 235M172.333 241.667L172.667 242.333L172.333 241.667M173 243L173 246L174 246L173 243M174 246L176 249L174 246M176.333 249.667L176.667 250.333L176.333 249.667M177.333 251.667L177.667 252.333L177.333 251.667M178 253L180 256L178 253M180.333 256.667L180.667 257.333L180.333 256.667M181 258L182 259L181 258M182 259L184 262L182 259M184 262L185 263L184 262M185 263L188 267L185 263M188 267L189 268L188 267M189 268L190 269L189 268M190 269L191 270L190 269M191 270L192 271L191 270M192 271L193 272L192 271M193 272L194 273L193 272M194 273L195 274L194 273M195 274L199 277L195 274M202 279L203 280L202 279M205 281L206 282L205 281M208 283L209 284L208 283M213 286L214 287L213 286M215 287L216 288L215 287M217 288L218 289L217 288M239 295L240 296L239 295M246 296L247 297L246 296M264 296L264 297L267 297L264 296M173 446L338 446C338 418.071 333.861 386.563 338.148 359C339.443 350.678 357.187 343.517 353.289 335C351.32 330.696 347.463 326.765 344.626 323C340.675 317.757 336.759 312.134 330 310.532C321.783 308.585 314.811 313.318 308 317.139C296.698 323.48 285.267 329.597 274 336C269.08 338.796 261.824 344.725 256 344.725C250.176 344.725 242.92 338.796 238 336C227.066 329.786 216.017 323.758 205 317.694C199.007 314.396 193.146 310.077 186 310.08C175.934 310.084 159.108 327.015 158.046 337C157.191 345.03 171.58 349.821 172.852 358C177.188 385.879 173 417.751 173 446z"/>
<path style="fill:#acde66; stroke:none;" d="M140 343L140 512L372 512L372 343C367.344 341.923 360.749 337.97 356 338.929C350.006 340.14 339.076 352.033 338.148 358C333.812 385.879 338 417.751 338 446L173 446L173 385C173 376.033 174.864 364.704 172.682 356C171.31 350.525 162.252 341.201 157 339.212C152.257 337.416 144.733 341.905 140 343z"/>
<path style="fill:#facc68; stroke:none;" d="M124 512L124 461C124 453.584 122.458 444.175 124.434 437.001C126.886 428.097 134.21 430.358 140 434L140 344C132.861 345.054 125.8 347.962 119 350.345C72.937 366.487 82 415.766 82 455C82 468.769 76.5552 497.41 87.189 507.786C95.2243 515.627 113.596 512 124 512M372 344L372 434C377.79 430.358 385.114 428.097 387.566 437.001C389.542 444.175 388 453.584 388 461L388 512C398.404 512 416.776 515.627 424.811 507.786C435.445 497.41 430 468.769 430 455C430 415.766 439.063 366.487 393 350.345C386.2 347.962 379.139 345.054 372 344z"/>
<path style="fill:#f3975f; stroke:none;" d="M124 512L140 512L140 449C140 442.335 141.958 430.117 132.001 430.117C122.196 430.117 124 442.442 124 449L124 512M372 512L388 512L388 449C388 442.442 389.804 430.117 379.999 430.117C370.042 430.117 372 442.335 372 449L372 512z"/>
<path style="fill:#facc68; stroke:none;" d="M371 437L371 459L372 459L371 437M169.004 467.742C154.202 473.469 163.589 496.051 177.996 490.142C192.464 484.208 183.403 462.172 169.004 467.742M334.004 467.742C319.408 473.391 328.641 495.811 342.996 490.258C357.8 484.531 348.465 462.146 334.004 467.742z"/>
</svg>
