<?xml version="1.0" standalone="yes"?>
<svg xmlns="http://www.w3.org/2000/svg" width="512" height="512">
<path style="fill:#ffffff; stroke:none;" d="M0 0L0 252L1 252C10.0517 239.853 40.6107 246.308 54 248C54 238.759 56.6701 224.676 53.3966 216.015C50.402 208.092 39.1335 201.093 34.0394 194C20.2693 174.826 12.4289 153.603 11.0934 130C9.5221 102.232 22.9764 74.3049 40.8449 54C46.2107 47.9025 55.0226 35.9367 64 35.9367C71.095 35.9367 78.3564 44.1911 82.8302 49.0146C96.2697 63.5047 107.108 79.8503 112.573 99C121.036 128.658 115.931 161.274 98.7948 187C94.3027 193.744 89.3431 200.041 83.8302 205.985C80.8787 209.168 76.1872 211.824 74.6034 216.015C71.1394 225.18 74 240.215 74 250L95 253C95 240.973 92.0553 224.52 95.5139 213C97.5375 206.259 105.203 200.797 110 196L142 164C146.61 159.39 151.764 152.124 158 149.742C163.964 147.464 172.687 149 179 149L226 149L263 149C268.43 149 275.031 147.974 280 150.573C286.993 154.229 291.836 161.36 297.09 167C306.057 176.627 315.697 185.697 325 195C330.45 200.45 338.811 206.393 341.196 214C346.461 230.793 342 255.4 342 273C355.995 270.933 370.269 264.563 384 260.849C387.758 259.832 395.405 259.219 396.682 254.856C402.783 234.014 387.21 223.858 375.181 210C367.228 200.838 360.384 189.911 355.109 179C325.795 118.369 345.859 38.7973 403 1L367 0L285 0L0 0z"/>
<path style="fill:#030302; stroke:none;" d="M342 273C342 255.112 346.547 230.066 341.196 213C338.922 205.749 331.191 200.191 326 195C316.68 185.68 307.148 176.526 298.039 167C292.701 161.417 288.014 154.24 281 150.573C275.797 147.852 268.689 149 263 149L226 149L179 149C172.413 149 163.219 147.367 157 149.742C150.764 152.124 145.61 159.39 141 164L110 195C105.203 199.797 97.5376 205.259 95.5139 212C91.9722 223.797 95 240.682 95 253L74 250C74 240.45 71.259 225.967 74.6034 217.004C76.2017 212.72 80.8043 210.159 83.8302 206.961C89.6513 200.808 94.8755 194.12 99.4591 187C116.479 160.562 121.252 127.107 112.279 97C106.72 78.347 96.1384 62.1041 82.8302 48.0394C78.1644 43.1083 71.3118 35.6018 64 35.6018C54.7636 35.6018 46.3713 46.7221 40.8449 53C22.4518 73.8943 9.18345 102.497 11.0895 131C12.673 154.679 20.1774 175.698 34.0394 195C39.146 202.111 50.423 209.035 53.3966 217.004C56.5517 225.459 54 238.996 54 248C40.319 245.46 21.7904 243.702 8.00077 246.228C0.512489 247.6 -2.90627 257.874 2.57253 263.431C7.07742 268.001 15.2205 265.817 21 266.576C39.5553 269.011 58.3657 268.289 77 271.414C131.942 280.627 189.993 296.999 237 328C224.682 333.853 213.557 344.27 203 352.803C199.132 355.93 193.434 362.991 188 362.439C182.55 361.885 176.901 357.553 172 355.309C162.608 351.008 152.73 347.158 143 343.692C112.689 332.895 80.9889 325.926 49 322.83C37.9201 321.758 27.1304 321.24 16 320.985C11.3134 320.878 6.23365 319.572 2.57253 323.419C-3.36247 329.655 1.0141 339.704 9 340.811C16.5656 341.86 24.3951 340.446 32 341.17C53.5605 343.222 74.871 345.876 96 350.884C123.1 357.307 147.524 370.759 174 378C163.103 388.897 152.524 400.21 142.59 412C139.871 415.228 135.052 424.1 130.536 424.611C122.3 425.542 108.127 416.69 100 414.294C78.0628 407.827 53.9733 402.222 31 402C23.0935 401.924 8.49995 397.4 2.43364 404.228C-2.33011 409.591 -0.0321846 419.061 7.01466 420.917C20.9546 424.59 38.4044 422.161 53 424.424C75.9337 427.981 96.6894 436.713 119 442C108.055 458.089 97.7187 474.392 87.5787 491C84.0176 496.833 79.3295 507.054 88.044 511.062C101.047 517.042 106.993 498.08 112.05 490C129.712 461.784 148.682 433.918 172.015 410C233.955 346.504 312.384 296.771 400 278C427.874 272.028 455.586 268.035 484 266.09C491.92 265.547 507.796 269.588 511.397 259.995C516.911 245.303 499.875 245.997 491 246C466.564 246.009 442.052 248.519 418 253C418 247.272 416.605 239.419 418.603 234C422.285 224.015 436.941 214.76 443.525 206C456.148 189.204 466.311 169.737 470.55 149C479.316 106.117 468.506 64.7715 442.373 30C435.561 20.9351 421.836 2.32278 410 0.229156C399.5 -1.62823 390.229 10.2749 383.83 17.0394C364.402 37.5798 349.703 62.051 344.004 90C336.636 126.134 343.531 163.933 363.541 195C369.752 204.643 377.011 213.795 385.039 221.985C389.145 226.174 395.879 229.745 396.852 236C397.57 240.614 398.753 252.838 395.397 256.436C392.118 259.95 383.517 260.739 379 261.873C366.505 265.013 354.516 270.104 342 273z"/>
<path style="fill:#ffffff; stroke:none;" d="M412 0L412 1C469.057 40.7193 488.417 116.908 459.691 179C452.988 193.488 443.032 206.08 432.576 217.996C428.35 222.812 420.881 226.824 418.603 233C416.51 238.677 418 246.995 418 253C440.671 250.132 463.084 246 486 246C494.91 246 504.479 243.799 511 251L512 251L512 0L412 0z"/>
<path style="fill:#64cc4d; stroke:none;" d="M407 23L415 31L407 23z"/>
<path style="fill:#afdb52; stroke:none;" d="M397 203L397 137C397 129.944 397.154 118.433 407 118.242C417.058 118.048 417.997 129.745 418 137L418 203C457.219 169.048 461.754 105.508 438.308 62C432.684 51.5646 425.783 41.766 417.575 33.1698C415.183 30.665 410.765 25.2007 407 25.2068C403.234 25.2128 399.436 30.4926 397.17 33C388.968 42.0765 381.489 52.1626 375.781 63C357.815 97.1113 357.512 137.601 374.753 172C380.205 182.878 387.202 195.506 397 203z"/>
<path style="fill:#64cc4d; stroke:none;" d="M418 34L419 35L418 34M419 35L420 36L419 35M394 36L395 37L394 36M420 36L421 37L420 36M393 37L394 38L393 37M421 37L422 38L421 37M392 38L393 39L392 38M424 41L425 42L424 41M389 42L390 43L389 42M425 42L426 43L425 42M388 43L389 44L388 43M426 43L427 44L426 43M387 44L388 45L387 44M386 46L387 47L386 46M428 46L429 47L428 46M385 47L386 48L385 47M430 49L431 50L430 49M383 50L384 51L383 50M431 50L432 51L431 50M432 52L433 53L432 52M381 53L382 54L381 53M433 53L434 54L433 53M380 54L381 55L380 54M379 56L380 57L379 56M435 56L436 57L435 56M378 58L379 59L378 58M436 58L437 59L436 58M57 66C63.2147 61.7691 64.7853 61.7691 71 66C66.1097 59.145 61.8903 59.145 57 66z"/>
<path style="fill:#afdb52; stroke:none;" d="M54 185L54 127C54.0004 120.102 54.5907 110.218 64 110.218C73.4093 110.218 73.9996 120.102 74 127L74 185C100.685 163.275 100.791 116.049 86.216 88C82.8183 81.4609 72.5047 61.2068 64 61.2068C55.4953 61.2068 45.1818 81.4609 41.784 88C27.2093 116.049 27.3151 163.275 54 185z"/>
<path style="fill:#64cc4d; stroke:none;" d="M437 60L438 61L437 60M376 61L377 62L376 61M438 62L439 63L438 62M375 63L376 64L375 63M439 64L440 65L439 64M374 65L375 66L374 65M440 65L441 66L440 65M373 67L374 68L373 67M441 67L442 68L441 67M54 69L55 70L54 69M73 69L74 70L73 69M372 69L373 70L372 69M53 70L54 71L53 70M74 70L75 71L74 70M442 70L443 71L442 70M52 71L53 72L52 71M75 71L76 72L75 71M371.333 71.6667L371.667 72.3333L371.333 71.6667M443 72L444 73L443 72M370 74L371 75L370 74M444.333 74.6667L444.667 75.3333L444.333 74.6667M49 75L50 76L49 75M78 75L79 76L78 75M369 76L370 77L369 76M445 77L446 78L445 77M47 78L48 79L47 78M80 78L81 79L80 78M368 79L369 80L368 79M446.333 79.6667L446.667 80.3333L446.333 79.6667M402 82L405 81L402 82z"/>
<path style="fill:#030302; stroke:none;" d="M405.004 80.6682C393.229 84.0569 398.075 102.804 409.985 99.3318C421.674 95.9246 416.829 77.2651 405.004 80.6682z"/>
<path style="fill:#64cc4d; stroke:none;" d="M410 80L411 81L410 80M45 81L46 82L45 81M82 81L83 82L82 81M412 81L413 82L412 81M367 82L368 83L367 82M400 82L401 83L400 82M447.333 82.6667L447.667 83.3333L447.333 82.6667M44 83L45 84L44 83M83 83L84 84L83 83M43 84L44 85L43 84M84 84L85 85L84 84M415 84L416 85L415 84M366.333 85.6667L366.667 86.3333L366.333 85.6667M398 85L399 86L398 85M416 85L417 86L416 85M42 86L43 87L42 86M85 86L86 87L85 86M448 86L449 87L448 86M41 88L42 89L41 88M86 88L87 89L86 88M397 88L397 92L398 92L397 88M365 89L366 90L365 89M417.333 89.6667L417.667 90.3333L417.333 89.6667M449.333 89.6667L449.667 90.3333L449.333 89.6667M40 90L41 91L40 90M87 90L88 91L87 90M39 92L40 93L39 92M88 92L89 93L88 92M364.333 92.6667L364.667 93.3333L364.333 92.6667M450.333 93.6667L450.667 94.3333L450.333 93.6667M398 94L399 95L398 94M416 94L417 95L416 94M38 95L39 96L38 95M89 95L90 96L89 95M415 95L416 96L415 95M37 97L38 98L37 97M90 97L91 98L90 97M363 97L363 100L364 100L363 97M400 97L401 98L400 97M402 98L403 99L402 98M412 98L413 99L412 98M403.667 99.3333L404.333 99.6667L403.667 99.3333M410 99L411 100L410 99M451.333 99.6667L451.667 100.333L451.333 99.6667M36 100L37 101L36 100M91 100L92 101L91 100M35 103L36 104L35 103M92 103L93 104L92 103M362 103L362 106L363 106L362 103M452 104L452 110L453 110L452 104M34.3333 106.667L34.6667 107.333L34.3333 106.667M93.3333 106.667L93.6667 107.333L93.3333 106.667M33 110L33 113L34 113L33 110M60.6667 110.333L61.3333 110.667L60.6667 110.333M66.6667 110.333L67.3333 110.667L66.6667 110.333M94 110L94 113L95 113L94 110M58 111L59 112L58 111M69 111L70 112L69 111M57 112L58 113L57 112M70 112L71 113L70 112M56 113L57 114L56 113M71 113L72 114L71 113M55 114L56 115L55 114M72 114L73 115L72 114M32 116L32 120L33 120L32 116M54.3333 116.667L54.6667 117.333L54.3333 116.667M73.3333 116.667L73.6667 117.333L73.3333 116.667M95 116L95 120L96 120L95 116M361 116L361 122L362 122L361 116M403.667 118.333L404.333 118.667L403.667 118.333M410 118L411 119L410 118M402 119L403 120L402 119M412 119L413 120L412 119M400 120L401 121L400 120M399 121L400 122L399 121M415 122L416 123L415 122M398 123L399 124L398 123M416 123L417 124L416 123M397.333 126.667L397.667 127.333L397.333 126.667M417 127L417 204L418 204L418 151L417 127M452 128L452 133L453 133L452 128M362 131L362 134L363 134L362 131M32 136L32 140L33 140L32 136M95 136L95 140L96 140L95 136M451 136L451 139L452 139L451 136M363 138L363 141L364 141L363 138M450.333 142.667L450.667 143.333L450.333 142.667M364.333 143.667L364.667 144.333L364.333 143.667M33.3333 144.667L33.6667 145.333L33.3333 144.667M94.3333 144.667L94.6667 145.333L94.3333 144.667M449.333 146.667L449.667 147.333L449.333 146.667M365.333 147.667L365.667 148.333L365.333 147.667M34.3333 148.667L34.6667 149.333L34.3333 148.667M93.3333 148.667L93.6667 149.333L93.3333 148.667M448.333 150.667L448.667 151.333L448.333 150.667M366.333 151.667L366.667 152.333L366.333 151.667M35 152L36 153L35 152M92 152L93 153L92 152M367.333 154.667L367.667 155.333L367.333 154.667M447 154L448 155L447 154M36 155L37 156L36 155M91 155L92 156L91 155M368 157L369 158L368 157M446 157L447 158L446 157M37 158L38 159L37 158M90 158L91 159L90 158M445.333 159.667L445.667 160.333L445.333 159.667M38 160L39 161L38 160M89 160L90 161L89 160M369 160L370 161L369 160M444 162L445 163L444 162M39 163L40 164L39 163M88 163L89 164L88 163M370 163L371 164L370 163M40 165L41 166L40 165M87 165L88 166L87 165M371 165L372 166L371 165M443 165L444 166L443 165M41 167L42 168L41 167M86 167L87 168L86 167M372 167L373 168L372 167M442 167L443 168L442 167M42 169L43 170L42 169M85 169L86 170L85 169z"/>
<path style="fill:#f75c5b; stroke:none;" d="M186 169L211 196L222 205.397L248 206L307 206L282 180L270 169.603L244 169L186 169z"/>
<path style="fill:#64cc4d; stroke:none;" d="M373 169L374 170L373 169M441 169L442 170L441 169M43 171L44 172L43 171M84 171L85 172L84 171M374 171L375 172L374 171M440 171L441 172L440 171M375 173L376 174L375 173M439 173L440 174L439 173M45 174L46 175L45 174M82 174L83 175L82 174z"/>
<path style="fill:#f75c5b; stroke:none;" d="M130 206L192 206L170 182L161 175.207L152 182L130 206z"/>
<path style="fill:#64cc4d; stroke:none;" d="M376 175L377 176L376 175M438 175L439 176L438 175M47 177L48 178L47 177M80 177L81 178L80 177M377 177L378 178L377 177M436 178L437 179L436 178M378 179L379 180L378 179M49 180L50 181L49 180M78 180L79 181L78 180M379 180L380 181L379 180M435 180L436 181L435 180M50 181L51 182L50 181M77 181L78 182L77 181M380 182L381 183L380 182M434 182L435 183L434 182M433 183L434 184L433 183M52 184L53 185L52 184M75 184L76 185L75 184M381 184L382 185L381 184M53 185L54 186L53 185M74 185L75 186L74 185M382 185L383 186L382 185M432 185L433 186L432 185M431 186L432 187L431 186M384 188L385 189L384 188M385 189L386 190L385 189M429 189L430 190L429 189M386 191L387 192L386 191M387 192L388 193L387 192M427 192L428 193L427 192M426 193L427 194L426 193M389 195L390 196L389 195M390 196L391 197L390 196M391 197L392 198L391 197M423 197L424 198L423 197M392 198L393 199L392 198M422 198L423 199L422 198M421 199L422 200L421 199M420 200L421 201L420 200M396 203L397 204L396 203z"/>
<path style="fill:#f75c5b; stroke:none;" d="M115 226C115 233.062 111.659 251.656 116.028 257.272C118.448 260.385 125.388 260.705 129 261C129 254.705 127.88 247.034 133.214 242.434C136.743 239.389 141.666 240 146 240C156.207 239.999 182.217 235.384 189.606 243.228C199.264 253.483 187.117 271.888 194.028 282.606C196.359 286.223 203.089 287.882 207 289L207 226L115 226M227 226L227 278L228.028 298.671L239 305.861L256 314.332L269 308.001L295 294.247L319.972 281.61L321 266L321 226L227 226M149 259C149.042 270.939 162.953 272.676 173 275L173 259L149 259z"/>
<path style="fill:#ffffff; stroke:none;" d="M0 261L0 326L1 326C3.23428 323.385 7.96106 321.536 9.3966 318.582C11.0286 315.224 10 309.646 10 306C10 295.978 13.6368 277.368 9.3966 268.299C7.99227 265.296 2.64959 262.997 0 261M511 261L502 266L502 320L511 326L512 326L512 282L511 261z"/>
<path style="fill:#64cc4d; stroke:none;" d="M10 266L10 321C50.8882 321 92.0945 327.034 131 340C144.487 344.495 158.062 349.384 171 355.309C176.097 357.642 184.164 363.936 190 363.022C195.017 362.235 200.185 355.887 204 352.803C214.704 344.151 225.613 335.746 237 328C222.453 314.381 196.468 305.607 178 298.576C124.198 278.092 67.7001 266 10 266M480 266L480 267L496 267L480 266z"/>
<path style="fill:#afdb52; stroke:none;" d="M105 502L150 502C155.149 502 163.888 503.681 168.582 501.397C171.986 499.74 174.538 493.053 176.709 490C183.541 480.392 190.619 470.975 198.272 462C220.861 435.508 246.524 412.198 275 392.144C284.133 385.712 285.963 390.863 295 390.191C300.666 389.769 309.22 383.094 313.941 379.985C320.033 375.975 316.405 368.135 323.044 364.013C329.454 360.033 332.149 366.367 338 366.764C343.562 367.141 352.899 361.147 357.995 358.846C365.834 355.307 363.688 346.387 372.004 342.518C410.248 324.726 460.406 320 502 320L502 266C339.347 269.357 182.628 356.146 105 502z"/>
<path style="fill:#64cc4d; stroke:none;" d="M466 267L466 268L472 268L466 267M454 268L454 269L459 269L454 268M447 269L447 270L450 270L447 269M439 270L439 271L443 271L439 270M432 271L432 272L435 272L432 271M426 272L426 273L429 273L426 272M421.667 273.333L422.333 273.667L421.667 273.333M416.667 274.333L417.333 274.667L416.667 274.333M410 275L410 276L413 276L410 275M406.667 276.333L407.333 276.667L406.667 276.333M402 277L403 278L402 277M397.667 278.333L398.333 278.667L397.667 278.333M393.667 279.333L394.333 279.667L393.667 279.333M389.667 280.333L390.333 280.667L389.667 280.333M385.667 281.333L386.333 281.667L385.667 281.333M382.667 282.333L383.333 282.667L382.667 282.333M378.667 283.333L379.333 283.667L378.667 283.333M375 284L376 285L375 284M371.667 285.333L372.333 285.667L371.667 285.333M368.667 286.333L369.333 286.667L368.667 286.333M365.667 287.333L366.333 287.667L365.667 287.333M362.667 288.333L363.333 288.667L362.667 288.333M359.667 289.333L360.333 289.667L359.667 289.333M356.667 290.333L357.333 290.667L356.667 290.333M353 291L354 292L353 291M350 292L351 293L350 292M348 293L349 294L348 293M345 294L346 295L345 294M342.667 295.333L343.333 295.667L342.667 295.333M340 296L341 297L340 296M337 297L338 298L337 297M335 298L336 299L335 298M332 299L333 300L332 299M330 300L331 301L330 300M327.667 301.333L328.333 301.667L327.667 301.333M325 302L326 303L325 302M323 303L324 304L323 303M320.667 304.333L321.333 304.667L320.667 304.333M318 305L319 306L318 305M316 306L317 307L316 306M314 307L315 308L314 307M312 308L313 309L312 308M307 310L308 311L307 310M305 311L306 312L305 311M303 312L304 313L303 312M301 313L302 314L301 313M299 314L300 315L299 314M297 315L298 316L297 315M295 316L296 317L295 316M293 317L294 318L293 317M290 319L291 320L290 319M288 320L289 321L288 320M484 320L484 321L502 321L484 320z"/>
<path style="fill:#030302; stroke:none;" d="M502 320.529C464.404 321.712 428.399 326.174 392 336.152C384.831 338.117 372.759 340.218 367.279 345.419C362.228 350.211 363.709 358.569 370.015 361.388C378.796 365.313 395.269 356.334 404 353.86C428.032 347.048 452.311 344.199 477 341.285C485.926 340.232 498.849 343.868 506.971 339.532C515.958 334.734 512.276 320.206 502 320.529z"/>
<path style="fill:#64cc4d; stroke:none;" d="M286 321L287 322L286 321M469 321L469 322L475 322L469 321M284 322L285 323L284 322M459 322L459 323L463 323L459 322M282 323L283 324L282 323M450 323L450 324L454 324L450 323M280 324L281 325L280 324M444 324L444 325L447 325L444 324M437 325L437 326L440 326L437 325M277 326L278 327L277 326M432.667 326.333L433.333 326.667L432.667 326.333M275 327L276 328L275 327M427.667 327.333L428.333 327.667L427.667 327.333M421 328L421 329L424 329L421 328M272 329L273 330L272 329M417.667 329.333L418.333 329.667L417.667 329.333M270 330L271 331L270 330M413 330L414 331L413 330M408.667 331.333L409.333 331.667L408.667 331.333M267 332L268 333L267 332M404.667 332.333L405.333 332.667L404.667 332.333M265 333L266 334L265 333M400.667 333.333L401.333 333.667L400.667 333.333M397.667 334.333L398.333 334.667L397.667 334.333z"/>
<path style="fill:#ffffff; stroke:none;" d="M0 335L0 407L1 407L10 401L10 341L0 335z"/>
<path style="fill:#64cc4d; stroke:none;" d="M262 335L263 336L262 335M393.667 335.333L394.333 335.667L393.667 335.333z"/>
<path style="fill:#ffffff; stroke:none;" d="M511 335L502 341L502 401L511 406L512 406L512 357L511 335z"/>
<path style="fill:#64cc4d; stroke:none;" d="M260 336L261 337L260 336M390 336L391 337L390 336M259 337L260 338L259 337M386.667 337.333L387.333 337.667L386.667 337.333M257 338L258 339L257 338M383.667 338.333L384.333 338.667L383.667 338.333M256 339L257 340L256 339M380.667 339.333L381.333 339.667L380.667 339.333M254 340L255 341L254 340M377.667 340.333L378.333 340.667L377.667 340.333M501 340C490.402 343.133 477.101 341.095 466 342.17C442.963 344.399 420.233 348.901 398 355.291C387.122 358.418 373.377 367.258 365 356L336 367C339.242 379.199 327.198 387.001 319 376C310.766 381.752 299.073 391.639 289 388L289 389C304.35 400.439 281.498 411.386 273 418.014C243.551 440.983 211.435 468.919 193 502L249 502C255.427 502 266.745 504.194 272.586 501.397C278.289 498.665 284.168 488.591 289 484.09C300.708 473.184 313.699 463.383 327 454.515C378.464 420.206 440.133 401 502 401L502 360L501 340z"/>
<path style="fill:#afdb52; stroke:none;" d="M10 341L10 401C36.8828 401 64.0232 404.023 90 411.294C99.4291 413.933 108.876 416.621 118 420.203C121.617 421.623 126.954 424.916 130.961 424.071C135.528 423.108 139.282 416.353 142.08 413C151.29 401.967 166.998 390.871 173 378C119.486 357.238 68.1015 341 10 341z"/>
<path style="fill:#64cc4d; stroke:none;" d="M27 341L27 342L35 342L27 341M253 341L254 342L253 341M374.667 341.333L375.333 341.667L374.667 341.333M41 342L41 343L46 343L41 342M251 342L252 343L251 342M371.667 342.333L372.333 342.667L371.667 342.333M53 343L53 344L56 344L53 343M250 343L251 344L250 343M369 343L370 344L369 343M60 344L60 345L63 345L60 344M248 344L249 345L248 344M66 345L66 346L70 346L66 345M247 345L248 346L247 345M366 345L367 346L366 345M73 346L73 347L76 347L73 346M245 346L246 347L245 346M78.6667 347.333L79.3333 347.667L78.6667 347.333M244 347L245 348L244 347M83.6667 348.333L84.3333 348.667L83.6667 348.333M242 348L243 349L242 348M364.333 348.667L364.667 349.333L364.333 348.667M88.6667 349.333L89.3333 349.667L88.6667 349.333M241 349L242 350L241 349M93.6667 350.333L94.3333 350.667L93.6667 350.333M97.6667 351.333L98.3333 351.667L97.6667 351.333M238 351L239 352L238 351M101.667 352.333L102.333 352.667L101.667 352.333M237 352L238 353L237 352M105.667 353.333L106.333 353.667L105.667 353.333M109 354L110 355L109 354M234 354L235 355L234 354M112.667 355.333L113.333 355.667L112.667 355.333M116 356L117 357L116 356M231 356L232 357L231 356M119 357L120 358L119 357M230 357L231 358L230 357M122.667 358.333L123.333 358.667L122.667 358.333M125.667 359.333L126.333 359.667L125.667 359.333M227 359L228 360L227 359M128.667 360.333L129.333 360.667L128.667 360.333M226 360L227 361L226 360M131.667 361.333L132.333 361.667L131.667 361.333M225 361L226 362L225 361M135 362L136 363L135 362M325.667 362.333L326.333 362.667L325.667 362.333z"/>
<path style="fill:#030302; stroke:none;" d="M327 362.787C314.367 363.571 316.163 383.146 328.996 381.851C340.958 380.644 339.007 362.042 327 362.787z"/>
<path style="fill:#64cc4d; stroke:none;" d="M328.667 362.333L329.333 362.667L328.667 362.333M137 363L138 364L137 363M222 363L223 364L222 363M332 363L333 364L332 363M140 364L141 365L140 364M221 364L222 365L221 364M321 364L322 365L321 364M333 364L334 365L333 364M142.667 365.333L143.333 365.667L142.667 365.333M320 365L321 366L320 365M145 366L146 367L145 366M319 366L320 367L319 366M148 367L149 368L148 367M217 367L218 368L217 367M150 368L151 369L150 368M216 368L217 369L216 368M318 368L319 369L318 368M153 369L154 370L153 369M155 370L156 371L155 370M213 370L214 371L213 370M157.667 371.333L158.333 371.667L157.667 371.333M212 371L213 372L212 371M317.333 371.667L317.667 372.333L317.333 371.667M160 372L161 373L160 372M211 372L212 373L211 372M162 373L163 374L162 373M210 373L211 374L210 373M164 374L165 375L164 374M166 375L167 376L166 375M169 376L170 377L169 376M171 377L172 378L171 377M205 377L206 378L205 377M173 378L174 379L173 378M204 378L205 379L204 378M203 379L204 380L203 379M202 380L203 381L202 380M198 383L199 384L198 383M197 384L198 385L197 384M196 385L197 386L196 385M195 386L196 387L195 386M194 387L195 388L194 387M282 387L282 388L288 388L282 387M193 388L194 389L193 388M280 388L281 389L280 388z"/>
<path style="fill:#030302; stroke:none;" d="M281 388.702C270.662 392.132 260.391 402.475 252 409.2C228.219 428.261 207.049 450.064 188.211 474C182.432 481.343 173.33 490.811 170.954 500C168.931 507.83 175.556 513.094 182.999 511.771C192.905 510.009 202.879 488.609 209.001 481C224.759 461.411 242.555 443.402 262 427.463C271.047 420.047 286.84 412.727 293.142 402.91C298.629 394.361 289.854 385.765 281 388.702z"/>
<path style="fill:#64cc4d; stroke:none;" d="M192 389L193 390L192 389M278 389L279 390L278 389M191 390L192 391L191 390M277 390L278 391L277 390M190 391L191 392L190 391M275 391L276 392L275 391M160 392L161 393L160 392M189 392L190 393L189 392M274 392L275 393L274 392M159 393L160 394L159 393M158 394L159 395L158 394M271 394L272 395L271 394M157 395L158 396L157 395M270 395L271 396L270 395M156 396L157 397L156 396M268 396L269 397L268 396M155 397L156 398L155 397M267 397L268 398L267 397M154 398L155 399L154 398M153 399L154 400L153 399M264 399L265 400L264 399M263 400L264 401L263 400M23 401L23 402L31 402L23 401z"/>
<path style="fill:#030302; stroke:none;" d="M484 401.424C423.907 409.315 370.762 423.799 320 458.659C305.441 468.657 291.068 480.011 279.055 493C273.93 498.542 271.262 508.884 281.004 511.566C290.219 514.104 295.649 505.772 301.17 500.09C311.845 489.101 325.224 479.475 338 471.079C370.884 449.469 408.223 433.489 447 426.261C460.782 423.692 475.001 421.652 489 421.039C494.905 420.781 504.068 422.927 508.852 418.682C513.682 414.397 513.122 404.615 506.906 401.858C501.038 399.255 490.244 400.604 484 401.424z"/>
<path style="fill:#64cc4d; stroke:none;" d="M38 402L38 403L43 403L38 402M260 402L261 403L260 402M47 403L47 404L51 404L47 403M259 403L260 404L259 403M55 404L55 405L58 405L55 404M149 404L150 405L149 404M61 405L61 406L64 406L61 405M148 405L149 406L148 405M176 405L177 406L176 405M256 405L257 406L256 405M67 406L67 407L70 407L67 406M147 406L148 407L147 406M175 406L176 407L175 406M255 406L256 407L255 406M72.6667 407.333L73.3333 407.667L72.6667 407.333M146 407L147 408L146 407M174 407L175 408L174 407M254 407L255 408L254 407M77.6667 408.333L78.3333 408.667L77.6667 408.333M145 408L146 409L145 408M173 408L174 409L173 408M81.6667 409.333L82.3333 409.667L81.6667 409.333M172 409L173 410L172 409M251 409L252 410L251 409M86.6667 410.333L87.3333 410.667L86.6667 410.333M171 410L172 411L171 410M250 410L251 411L250 410M90 411L91 412L90 411M170 411L171 412L170 411M249 411L250 412L249 411M93.6667 412.333L94.3333 412.667L93.6667 412.333M142 412L143 413L142 412M169 412L170 413L169 412M97 413L98 414L97 413M141 413L142 414L141 413M168 413L169 414L168 413M246 413L247 414L246 413M100.667 414.333L101.333 414.667L100.667 414.333M140 414L141 415L140 414M167 414L168 415L167 414M245 414L246 415L245 414M104 415L105 416L104 415M244 415L245 416L244 415z"/>
<path style="fill:#ffffff; stroke:none;" d="M0 416L0 512L88 512L83 502L10 502L10 446L9.3966 423.299L0 416z"/>
<path style="fill:#64cc4d; stroke:none;" d="M106.667 416.333L107.333 416.667L106.667 416.333M243 416L244 417L243 416z"/>
<path style="fill:#ffffff; stroke:none;" d="M511 416L502 421L502 502L354 502L317 502L300 502.603L289 511L289 512L512 512L512 445L511 416z"/>
<path style="fill:#64cc4d; stroke:none;" d="M109.667 417.333L110.333 417.667L109.667 417.333M242 417L243 418L242 417M112.667 418.333L113.333 418.667L112.667 418.333M137 418L138 419L137 418M115.667 419.333L116.333 419.667L115.667 419.333M136 419L137 420L136 419M163 419L164 420L163 419M118 420L119 421L118 420M135 420L136 421L135 420M162 420L163 421L162 420M238 420L239 421L238 420M10 421L10 502L83 502C88.587 479.886 109.36 462.287 119 442C83.2391 429.902 48.0259 421 10 421M121 421L122 422L121 421M161 421L162 422L161 421M237 421L238 422L237 421M484 421L484 422L496 422L484 421z"/>
<path style="fill:#afdb52; stroke:none;" d="M300 502L502 502L502 421C446.579 422.144 392.219 437.18 345 466.576C329.867 475.997 310.449 487.289 300 502z"/>
<path style="fill:#64cc4d; stroke:none;" d="M123 422L124 423L123 422M160 422L161 423L160 422M236 422L237 423L236 422M472 422L472 423L477 423L472 422M126 423L127 424L126 423M133 423L134 424L133 423M159 423L160 424L159 423M235 423L236 424L235 423M464 423L464 424L467 424L464 423M128.667 424.333L129.333 424.667L128.667 424.333M132 424L133 425L132 424M457 424L457 425L460 425L457 424M131 425L132 426L131 425M451 425L451 426L454 426L451 425M445 426L445 427L448 427L445 426M156 427L157 428L156 427M441.667 427.333L442.333 427.667L441.667 427.333M155 428L156 429L155 428M436.667 428.333L437.333 428.667L436.667 428.333M154 429L155 430L154 429M432.667 429.333L433.333 429.667L432.667 429.333M428.667 430.333L429.333 430.667L428.667 430.333M226 431L227 432L226 431M425 431L426 432L425 431M225 432L226 433L225 432M421.667 432.333L422.333 432.667L421.667 432.333M151 433L152 434L151 433M224 433L225 434L224 433M417.667 433.333L418.333 433.667L417.667 433.333M150 434L151 435L150 434M223 434L224 435L223 434M414 434L415 435L414 434M222 435L223 436L222 435M411.667 435.333L412.333 435.667L411.667 435.333M221 436L222 437L221 436M408.667 436.333L409.333 436.667L408.667 436.333M220 437L221 438L220 437M405.667 437.333L406.333 437.667L405.667 437.333M147 438L148 439L147 438M219 438L220 439L219 438M402.667 438.333L403.333 438.667L402.667 438.333M146 439L147 440L146 439M218 439L219 440L218 439M400 439L401 440L400 439M217 440L218 441L217 440M397 440L398 441L397 440M216 441L217 442L216 441M394.667 441.333L395.333 441.667L394.667 441.333M215 442L216 443L215 442M392 442L393 443L392 442M143 443L144 444L143 443M214 443L215 444L214 443M389 443L390 444L389 443M142 444L143 445L142 444M387 444L388 445L387 444M385 445L386 446L385 445M382 446L383 447L382 446M140 447L141 448L140 447M380 447L381 448L380 447M139 448L140 449L139 448M378 448L379 449L378 448M376 449L377 450L376 449M138 450L139 451L138 450M374 450L375 451L374 450M137 451L138 452L137 451M372 451L373 452L372 451M206 452L207 453L206 452M370 452L371 453L370 452M205 453L206 454L205 453M368 453L369 454L368 453M135 454L136 455L135 454M204 454L205 455L204 454M366 454L367 455L366 454M134 455L135 456L134 455M203 455L204 456L203 455M364 455L365 456L364 455M362 456L363 457L362 456M360 457L361 458L360 457M132 458L133 459L132 458M358 458L359 459L358 458M200 459L201 460L200 459M199 460L200 461L199 460M355 460L356 461L355 460M130 461L131 462L130 461M198 461L199 462L198 461M353 461L354 462L353 461M129 462L130 463L129 462M197 462L198 463L197 462M351 462L352 463L351 462M349 463L350 464L349 463M128 464L129 465L128 464M348 464L349 465L348 464M127 465L128 466L127 465M346 465L347 466L346 465M194 466L195 467L194 466M345 466L346 467L345 466M126 467L127 468L126 467M193 467L194 468L193 467M343 467L344 468L343 467M125 468L126 469L125 468M192 468L193 469L192 468M340 469L341 470L340 469M124 470L125 471L124 470M338 470L339 471L338 470M123 471L124 472L123 471M190 471L191 472L190 471M337 471L338 472L337 471M189 472L190 473L189 472M335 472L336 473L335 472M122 473L123 474L122 473M334 473L335 474L334 473M331 475L332 476L331 475M120 476L121 477L120 476M186 476L187 477L186 476M185 477L186 478L185 477M328 477L329 478L328 477M327 478L328 479L327 478M118 479L119 480L118 479M183 480L184 481L183 480M324 480L325 481L324 480M117 481L118 482L117 481M182 481L183 482L182 481M323 481L324 482L323 481M116 482L117 483L116 482M320 483L321 484L320 483M115 484L116 485L115 484M180 484L181 485L180 484M319 484L320 485L319 484M316 486L317 487L316 486M113 487L114 488L113 487M178 487L179 488L178 487M315 487L316 488L315 487M177 488L178 489L177 488M314 488L315 489L314 488M112 489L113 490L112 489M111 490L112 491L111 490M176 490L177 491L176 490M175 491L176 492L175 491M310 491L311 492L310 491M110 492L111 493L110 492M309 492L310 493L309 492M308 493L309 494L308 493M109 494L110 495L109 494M173 494L174 495L173 494M307 494L308 495L307 494M108 495L109 496L108 495M172 495L173 496L172 495M107 497L108 498L107 497M171 497L172 498L171 497M303 497L304 498L303 497M302 498L303 499L302 498M106 499L107 500L106 499M301 499L302 500L301 499M105 500L106 501L105 500M170.333 500.667L170.667 501.333L170.333 500.667M300 500L301 501L300 500M299 501L300 502L299 501z"/>
<path style="fill:#ffffff; stroke:none;" d="M97 511L97 512L176 512L176 511L170 502L126 502L106.209 502.603L97 511M185 511L185 512L280 512L280 511L274 502L218 502L194.184 502.603L185 511z"/>
</svg>
