<?xml version="1.0" standalone="yes"?>
<svg xmlns="http://www.w3.org/2000/svg" width="512" height="512">
<path style="fill:#ddeef8; stroke:none;" d="M0 0L0 512L512 512L512 371L511 371C507.06 387.983 492.88 400.751 476 404.331C462.261 407.245 446.026 405 432 405L346 405L360 464C383.588 464 412.942 460.526 420.1 490C421.739 496.749 421 504.102 421 511L92 511C92 491.249 96.1292 467.827 120 464.301C127.859 463.14 146.021 467.925 152.262 462.972C155.478 460.419 155.918 451.823 156.873 448C160.44 433.735 164.029 419.402 167 405L78 405C62.9445 405 45.4164 407.515 31 402.644C9.60281 395.416 1 375.923 1 355L67 355L86.8341 165L91.7153 118L94.6034 100.603L106 99L134 99C134 77.9307 132.452 57.9746 143.337 39C166.308 -1.04034 224.373 -0.966125 250.51 35C264.384 54.0909 263 76.6727 263 99L303 99L309.285 161L312.603 180.972L326 182L362 182L367.831 241L380 355L512 355L512 0L417 0L417 1C427.133 2.49655 436.913 7.77393 445 13.8997C499.307 55.0353 474.9 151.141 403 151.996C368.999 152.401 338.33 132.576 326.698 100C312.478 60.175 338.24 7.4628 382 1L348 0L270 0L0 0z"/>
<path style="fill:#82bdae; stroke:none;" d="M382 0.464508C337.313 8.50732 311.343 60.5431 327.066 102C340.626 137.756 377.669 157.753 415 150.739C467.649 140.847 492.216 77.1408 463.91 33C446.314 5.5618 413.275 -5.16437 382 0.464508z"/>
<path style="fill:#395d55; stroke:none;" d="M189 8.43906C148.202 14.811 134 49.0183 134 86C134 97.9393 133.354 110.082 134.043 122C134.314 126.68 136.587 131.573 142 131.573C154.594 131.573 150 102.051 150 94C150 82.1269 148.519 69.4007 152.356 58C159.722 36.1131 185.878 19.4509 209 26.0401C244.689 36.2108 247 66.7478 247 98C247 105.476 242.701 132.54 255 131.663C261.462 131.202 261.99 125.061 262 120L262 80C262 39.0039 234.165 1.3851 189 8.43906z"/>
<path style="fill:#ddeef8; stroke:none;" d="M150 99L246 99C246 81.7855 248.527 63.55 239.662 48C222.642 18.1452 178.18 17.7138 158.637 45C147.432 60.6454 150 80.8893 150 99M391 97C386.403 89.1311 382.851 78.8409 376.61 72.1481C373.36 68.662 367.043 67.7753 364.179 72.3441C361.458 76.6847 364.259 82.1221 366.425 86C372.147 96.245 377.066 108.887 384.61 117.891C387.74 121.627 392.679 122.987 396.61 119.486C402.475 114.262 405.715 103.058 408.861 96C415.316 81.5162 422.663 67.1825 429.753 53C432.64 47.2249 440.071 35.2058 429.981 31.7855C422.226 29.157 418.308 39.81 415.756 45C407.325 62.1478 398.345 79.3568 391 97z"/>
<path style="fill:#82bdae; stroke:none;" d="M161 41L162 42L161 41M254 41L255 42L254 41M141 42L142 43L141 42M160 42L161 43L160 42M236 43L237 44L236 43M255 43L256 44L255 43M140 44L141 45L140 44M237 44L238 45L237 44M238 45L239 46L238 45M256 45L257 46L256 45M139 46L140 47L139 46M157 46L158 47L157 46M239 47L240 48L239 47M257 47L258 48L257 47M138.333 48.6667L138.667 49.3333L138.333 48.6667M156 48L157 49L156 48M240 49L241 50L240 49M155 50L156 51L155 50M258 50L259 51L258 50M137 51L138 52L137 51M241 51L242 52L241 51M154 52L155 53L154 52M259.333 52.6667L259.667 53.3333L259.333 52.6667M242 53L243 54L242 53M136.333 54.6667L136.667 55.3333L136.333 54.6667M153 54L154 55L153 54M243.333 55.6667L243.667 56.3333L243.333 55.6667M260.333 56.6667L260.667 57.3333L260.333 56.6667M152 57L153 58L152 57M135 58L136 59L135 58M244.333 58.6667L244.667 59.3333L244.333 58.6667M151 60L152 61L151 60M261 60L261 63L262 63L261 60M245 62L246 63L245 62M134 63L134 66L135 66L134 63M150 64L150 67L151 67L150 64M262 66L262 99L263 99L262 66M246 67L246 99L247 99L246 67z"/>
<path style="fill:#fd481f; stroke:none;" d="M94 99L74.169 287L67 355L329 356L329 355L198 355L210.166 240L216 182L311 182L303 99L262 99C262 106.452 266.036 130.318 255 131.338C243.077 132.44 247 105.899 247 99L150 99C150 106.34 153.87 131.211 142 131.211C130.019 131.211 134 106.424 134 99L94 99z"/>
<path style="fill:#82bdae; stroke:none;" d="M93 100L93 103L94 103L93 100M303.333 105.667L303.667 106.333L303.333 105.667M92.3333 110.667L92.6667 111.333L92.3333 110.667M304 114L304 117L305 117L304 114M91 119L91 122L92 122L91 119M305 124L305 127L306 127L305 124M90.3333 129.667L90.6667 130.333L90.3333 129.667M306 133L306 136L307 136L306 133M89 138L89 141L90 141L89 138M307 143L307 146L308 146L307 143M88 148L88 151L89 151L88 148M308.333 153.667L308.667 154.333L308.333 153.667M87.3333 158.667L87.6667 159.333L87.3333 158.667M309 162L309 165L310 165L309 162M86 167L86 170L87 170L86 167M310 172L310 175L311 175L310 172M85 177L85 180L86 180L85 177M311 181L312 182L311 181z"/>
<path style="fill:#ffe14d; stroke:none;" d="M216 182L198 355L380 355L367.831 240L362 182L216 182z"/>
<path style="fill:#82bdae; stroke:none;" d="M84 186L84 189L85 189L84 186M83 196L83 199L84 199L83 196M405.667 198.333L406.333 198.667L405.667 198.333z"/>
<path style="fill:#395d55; stroke:none;" d="M407.015 198.573C399.3 200.857 399.606 210.798 407.015 213.196C413.063 215.153 420.714 214 427 214L467 214C473.171 214 482.409 215.639 487.772 211.91C495.124 206.799 488.8 198.688 482 198.094C465.916 196.69 449.148 198 433 198C425.005 198 414.72 196.291 407.015 198.573z"/>
<path style="fill:#82bdae; stroke:none;" d="M485.667 198.333L486.333 198.667L485.667 198.333M488 199L489 200L488 199M402 200L403 201L402 200M489 200L490 201L489 200M401 202L402 203L401 202M491 204L491 208L492 208L491 204M400.333 205.667L400.667 206.333L400.333 205.667M82.3333 206.667L82.6667 207.333L82.3333 206.667z"/>
<path style="fill:#ddeef8; stroke:none;" d="M252.108 206.859C243.244 210.809 246.987 232.144 247 240C247.051 271.491 273.385 298.983 306 285.046C329.315 275.082 330 252.594 330 231C330 224.284 333.206 203.757 321.005 206.337C312.558 208.124 315 220.732 315 227C315 245.28 313.942 275.75 287 272.812C260.032 269.871 263.001 240.684 263 221C263 214.669 261.987 202.456 252.108 206.859z"/>
<path style="fill:#82bdae; stroke:none;" d="M401 209L402 210L401 209M490 209L491 210L490 209M489 211L490 212L489 211M404 212L405 213L404 212M487 212L488 213L487 212M406.667 213.333L407.333 213.667L406.667 213.333M484 213L484 214L487 214L484 213M81 215L81 218L82 218L81 215M80 225L80 228L81 228L80 225M423 234L423 235L485 235L465 234L423 234M79.3333 235.667L79.6667 236.333L79.3333 235.667M420 235L421 236L420 235z"/>
<path style="fill:#395d55; stroke:none;" d="M421.109 235.742C415.152 238.304 416.136 247.594 422.044 249.486C435.747 253.875 456.593 250 471 250C475.859 250 483.733 251.476 487.852 248.397C492.976 244.566 491.221 236.402 484.985 235.228C470.965 232.591 454.275 235 440 235C434.446 235 426.29 233.514 421.109 235.742z"/>
<path style="fill:#82bdae; stroke:none;" d="M487 235L488 236L487 235M417 238L418 239L417 238M490 238L491 239L490 238M416 240L416 245L417 245L416 240M491 241L491 244L492 244L491 241M78 244L78 247L79 247L78 244M417 246L418 247L417 246M490 246L491 247L490 246M489 247L490 248L489 247M419 248L420 249L419 248M488 248L489 249L488 248M420 249L421 250L420 249M487 249L488 250L487 249M424 250L424 251L484 251L465 250L424 250M77 254L77 257L78 257L77 254M76 263L76 266L77 266L76 263M75 273L75 276L76 276L75 273M74.3333 283.667L74.6667 284.333L74.3333 283.667M73 292L73 295L74 295L73 292M72 302L72 305L73 305L72 302M71.3333 312.667L71.6667 313.333L71.3333 312.667M70 321L70 324L71 324L70 321M69 331L69 334L70 334L69 331M68.3333 341.667L68.6667 342.333L68.3333 341.667M67 350L67 353L68 353L67 350z"/>
<path style="fill:#395d55; stroke:none;" d="M1 355C1 375.534 9.1196 394.862 30 402.3C44.4235 407.438 61.9277 405 77 405L167 405C163.108 418.846 160.362 433.045 156.873 447C155.814 451.238 155.43 459.221 152.262 462.397C146.626 468.044 126.697 463.164 119 464.301C95.0151 467.843 92 491.415 92 511L421 511C421 504.133 421.77 496.746 420.331 490C413.925 459.974 383.533 464 360 464C358.494 445.565 352.529 422.305 346 405L436 405C451.1 405 468.539 407.401 483 402.301C504.391 394.756 512 375.959 512 355L1 355z"/>
<path style="fill:#82bdae; stroke:none;" d="M1.33333 368.667L1.66667 369.333L1.33333 368.667M511 370L512 371L511 370M2 372L3 373L2 372M510 373L511 374L510 373M3 375L4 376L3 375M509 376L510 377L509 376M4 378L5 379L4 378M508 379L509 380L508 379M5 380L6 381L5 380M6 382L7 383L6 382M506 382L507 383L506 382M7 384L8 385L7 384M505 384L506 385L505 384M8 385L9 386L8 385M504 386L505 387L504 386M503 387L504 388L503 387M10 388L11 389L10 388M502 388L503 389L502 388M11 389L12 390L11 389M501 389L502 390L501 389M12 390L13 391L12 390M13 391L14 392L13 391M14 392L15 393L14 392M15 393L16 394L15 393M16 394L17 395L16 394M496 394L497 395L496 394M17 395L18 396L17 395M495 395L496 396L495 395M494 396L495 397L494 396M20 397L21 398L20 397M22 398L23 399L22 398M491 398L492 399L491 398M23 399L24 400L23 399M489 399L490 400L489 399M25 400L26 401L25 400M487 400L488 401L487 400M27 401L28 402L27 401M485 401L486 402L485 401M30 402L31 403L30 402M482 402L483 403L482 402M33 403L34 404L33 403M479 403L480 404L479 403M37 404L37 405L40 405L37 404M473 404L473 405L476 405L473 404z"/>
</svg>
